<svg xmlns="http://www.w3.org/2000/svg" xmlns:xlink="http://www.w3.org/1999/xlink" width="500" zoomAndPan="magnify" viewBox="0 0 375 374.999991" height="500" preserveAspectRatio="xMidYMid meet" version="1.0"><defs><clipPath id="1e1c95f314"><path d="M 187.5 0 C 83.945312 0 0 83.945312 0 187.5 C 0 291.054688 83.945312 375 187.5 375 C 291.054688 375 375 291.054688 375 187.5 C 375 83.945312 291.054688 0 187.5 0 " clip-rule="nonzero"/></clipPath><clipPath id="04dbd665da"><path d="M 11.152344 141.390625 L 358.402344 141.390625 L 358.402344 241.890625 L 11.152344 241.890625 Z M 11.152344 141.390625 " clip-rule="nonzero"/></clipPath></defs><g clip-path="url(#1e1c95f314)"><rect x="-37.5" width="450" fill="#f2f2f2" y="-37.499999" height="449.999989" fill-opacity="1"/></g><g clip-path="url(#04dbd665da)"><path fill="#222222" d="M 13.765625 219.75 L 13.765625 181.136719 L 61.917969 181.136719 L 61.917969 178.878906 L 13.765625 178.878906 L 13.765625 143.648438 L 64.960938 143.648438 L 64.960938 141.390625 L 11.511719 141.390625 L 11.511719 222.007812 L 65.414062 222.007812 L 65.414062 219.75 Z M 108.832031 163.972656 L 88.871094 190.28125 L 69.363281 163.972656 L 66.429688 163.972656 L 87.519531 191.976562 L 64.398438 222.007812 L 67.105469 222.007812 L 88.871094 193.667969 L 110.746094 222.007812 L 113.5625 222.007812 L 90.335938 191.976562 L 111.539062 163.972656 Z M 120.332031 241.886719 L 120.332031 205.75 L 120.554688 205.75 C 121.90625 211.019531 124.582031 215.253906 128.5625 218.453125 C 132.546875 221.652344 137.625 223.25 143.789062 223.25 C 147.769531 223.25 151.300781 222.445312 154.386719 220.824219 C 157.46875 219.203125 160.046875 217 162.109375 214.222656 C 164.183594 211.4375 165.757812 208.199219 166.847656 204.507812 C 167.9375 200.820312 168.480469 196.945312 168.480469 192.878906 C 168.480469 188.515625 167.917969 184.488281 166.792969 180.796875 C 165.664062 177.109375 164.027344 173.910156 161.886719 171.203125 C 159.742188 168.492188 157.148438 166.382812 154.105469 164.878906 C 151.058594 163.371094 147.621094 162.621094 143.789062 162.621094 C 140.851562 162.621094 138.132812 163.054688 135.613281 163.917969 C 133.097656 164.785156 130.855469 166.007812 128.898438 167.589844 C 126.949219 169.167969 125.257812 171.03125 123.832031 173.175781 C 122.402344 175.324219 121.304688 177.675781 120.554688 180.234375 L 120.332031 180.234375 L 120.332031 163.972656 L 118.078125 163.972656 L 118.078125 241.886719 Z M 143.789062 221.109375 C 136.722656 221.109375 131.046875 218.683594 126.761719 213.824219 C 122.476562 208.96875 120.332031 201.988281 120.332031 192.878906 C 120.332031 189.117188 120.859375 185.539062 121.90625 182.152344 C 122.964844 178.765625 124.488281 175.792969 126.476562 173.234375 C 128.464844 170.675781 130.929688 168.640625 133.859375 167.136719 C 136.796875 165.628906 140.101562 164.878906 143.789062 164.878906 C 147.546875 164.878906 150.835938 165.628906 153.652344 167.136719 C 156.472656 168.640625 158.800781 170.691406 160.640625 173.289062 C 162.488281 175.886719 163.878906 178.859375 164.816406 182.210938 C 165.757812 185.558594 166.226562 189.117188 166.226562 192.878906 C 166.226562 196.265625 165.792969 199.636719 164.933594 202.984375 C 164.066406 206.335938 162.734375 209.34375 160.925781 212.019531 C 159.125 214.691406 156.8125 216.871094 153.988281 218.566406 C 151.171875 220.261719 147.769531 221.109375 143.789062 221.109375 Z M 180.886719 222.007812 L 180.886719 189.152344 C 180.886719 185.992188 181.339844 182.90625 182.238281 179.894531 C 183.140625 176.882812 184.535156 174.230469 186.414062 171.933594 C 188.289062 169.640625 190.679688 167.832031 193.574219 166.515625 C 196.464844 165.199219 199.90625 164.652344 203.890625 164.878906 L 203.890625 162.621094 C 200.433594 162.542969 197.40625 162.921875 194.816406 163.75 C 192.222656 164.578125 189.980469 165.707031 188.109375 167.136719 C 186.226562 168.566406 184.722656 170.242188 183.59375 172.160156 C 182.460938 174.082031 181.636719 176.132812 181.117188 178.3125 L 180.886719 178.3125 L 180.886719 163.972656 L 178.632812 163.972656 L 178.632812 222.007812 Z M 206.714844 193.445312 L 255.199219 193.445312 C 255.347656 189.453125 254.957031 185.617188 254.015625 181.925781 C 253.074219 178.238281 251.574219 174.964844 249.507812 172.105469 C 247.4375 169.246094 244.769531 166.949219 241.5 165.214844 C 238.226562 163.484375 234.339844 162.621094 229.828125 162.621094 C 226.597656 162.621094 223.4375 163.296875 220.359375 164.652344 C 217.273438 166.007812 214.5625 167.984375 212.234375 170.578125 C 209.90625 173.175781 208.027344 176.355469 206.597656 180.121094 C 205.171875 183.886719 204.453125 188.175781 204.453125 192.992188 C 204.453125 197.28125 204.945312 201.292969 205.921875 205.015625 C 206.894531 208.742188 208.40625 211.980469 210.429688 214.726562 C 212.460938 217.476562 215.070312 219.605469 218.265625 221.109375 C 221.460938 222.613281 225.320312 223.332031 229.828125 223.25 C 236.445312 223.25 242.007812 221.386719 246.515625 217.664062 C 251.023438 213.9375 253.699219 208.6875 254.523438 201.914062 L 252.269531 201.914062 C 251.289062 208.3125 248.789062 213.113281 244.769531 216.308594 C 240.75 219.507812 235.695312 221.109375 229.601562 221.109375 C 225.46875 221.109375 221.96875 220.390625 219.113281 218.960938 C 216.257812 217.53125 213.929688 215.570312 212.121094 213.089844 C 210.320312 210.605469 208.988281 207.691406 208.121094 204.339844 C 207.253906 200.992188 206.789062 197.359375 206.714844 193.445312 Z M 252.945312 191.1875 L 206.714844 191.1875 C 206.9375 187.121094 207.6875 183.472656 208.96875 180.234375 C 210.246094 176.996094 211.917969 174.230469 213.980469 171.933594 C 216.054688 169.640625 218.457031 167.890625 221.203125 166.683594 C 223.945312 165.480469 226.894531 164.878906 230.050781 164.878906 C 233.8125 164.878906 237.121094 165.574219 239.980469 166.96875 C 242.835938 168.359375 245.21875 170.261719 247.140625 172.667969 C 249.054688 175.078125 250.503906 177.882812 251.476562 181.082031 C 252.460938 184.28125 252.945312 187.648438 252.945312 191.1875 Z M 301.996094 181.136719 L 304.257812 181.136719 C 304.257812 174.664062 302.375 169.960938 298.617188 167.023438 C 294.855469 164.085938 289.746094 162.621094 283.28125 162.621094 C 279.667969 162.621094 276.628906 163.070312 274.144531 163.972656 C 271.660156 164.878906 269.636719 166.042969 268.054688 167.476562 C 266.476562 168.90625 265.347656 170.484375 264.667969 172.21875 C 264 173.949219 263.660156 175.605469 263.660156 177.183594 C 263.660156 180.347656 264.222656 182.867188 265.347656 184.75 C 266.476562 186.632812 268.242188 188.101562 270.652344 189.152344 C 272.304688 189.90625 274.183594 190.582031 276.289062 191.1875 C 278.394531 191.789062 280.839844 192.429688 283.621094 193.105469 C 286.097656 193.707031 288.539062 194.308594 290.949219 194.910156 C 293.351562 195.515625 295.476562 196.324219 297.320312 197.339844 C 299.160156 198.355469 300.660156 199.65625 301.824219 201.234375 C 302.996094 202.816406 303.578125 204.886719 303.578125 207.445312 C 303.578125 209.925781 302.996094 212.035156 301.824219 213.769531 C 300.660156 215.496094 299.179688 216.914062 297.371094 218.003906 C 295.574219 219.09375 293.5625 219.882812 291.34375 220.375 C 289.121094 220.863281 286.964844 221.109375 284.859375 221.109375 C 278.015625 221.109375 272.769531 219.582031 269.128906 216.535156 C 265.480469 213.484375 263.660156 208.6875 263.660156 202.136719 L 261.398438 202.136719 C 261.398438 209.4375 263.375 214.785156 267.320312 218.175781 C 271.269531 221.554688 277.117188 223.25 284.859375 223.25 C 287.335938 223.25 289.839844 222.972656 292.359375 222.402344 C 294.875 221.839844 297.128906 220.917969 299.125 219.636719 C 301.117188 218.355469 302.734375 216.703125 303.972656 214.671875 C 305.210938 212.636719 305.832031 210.15625 305.832031 207.21875 C 305.832031 204.433594 305.285156 202.175781 304.195312 200.445312 C 303.105469 198.714844 301.675781 197.28125 299.910156 196.152344 C 298.144531 195.023438 296.15625 194.140625 293.933594 193.5 C 291.714844 192.859375 289.480469 192.238281 287.226562 191.636719 C 284.066406 190.808594 281.304688 190.09375 278.9375 189.492188 C 276.566406 188.890625 274.367188 188.175781 272.335938 187.347656 C 270.386719 186.519531 268.824219 185.332031 267.660156 183.789062 C 266.496094 182.246094 265.914062 180.046875 265.914062 177.183594 C 265.914062 176.660156 266.0625 175.71875 266.359375 174.363281 C 266.664062 173.007812 267.375 171.632812 268.507812 170.242188 C 269.636719 168.847656 271.363281 167.605469 273.691406 166.515625 C 276.027344 165.425781 279.21875 164.878906 283.28125 164.878906 C 286.0625 164.878906 288.59375 165.179688 290.890625 165.78125 C 293.183594 166.382812 295.160156 167.34375 296.8125 168.660156 C 298.460938 169.976562 299.742188 171.652344 300.640625 173.683594 C 301.546875 175.71875 301.996094 178.203125 301.996094 181.136719 Z M 354.210938 181.136719 L 356.464844 181.136719 C 356.464844 174.664062 354.585938 169.960938 350.828125 167.023438 C 347.066406 164.085938 341.953125 162.621094 335.492188 162.621094 C 331.882812 162.621094 328.839844 163.070312 326.355469 163.972656 C 323.875 164.878906 321.847656 166.042969 320.261719 167.476562 C 318.6875 168.90625 317.5625 170.484375 316.886719 172.21875 C 316.207031 173.949219 315.871094 175.605469 315.871094 177.183594 C 315.871094 180.347656 316.433594 182.867188 317.5625 184.75 C 318.6875 186.632812 320.453125 188.101562 322.863281 189.152344 C 324.511719 189.90625 326.394531 190.582031 328.5 191.1875 C 330.605469 191.789062 333.046875 192.429688 335.828125 193.105469 C 338.304688 193.707031 340.75 194.308594 343.160156 194.910156 C 345.5625 195.515625 347.6875 196.324219 349.527344 197.339844 C 351.367188 198.355469 352.871094 199.65625 354.042969 201.234375 C 355.207031 202.816406 355.789062 204.886719 355.789062 207.445312 C 355.789062 209.925781 355.207031 212.035156 354.042969 213.769531 C 352.871094 215.496094 351.390625 216.914062 349.582031 218.003906 C 347.78125 219.09375 345.773438 219.882812 343.550781 220.375 C 341.332031 220.863281 339.171875 221.109375 337.066406 221.109375 C 330.226562 221.109375 324.980469 219.582031 321.339844 216.535156 C 317.691406 213.484375 315.871094 208.6875 315.871094 202.136719 L 313.609375 202.136719 C 313.609375 209.4375 315.585938 214.785156 319.53125 218.175781 C 323.476562 221.554688 329.324219 223.25 337.066406 223.25 C 339.550781 223.25 342.050781 222.972656 344.566406 222.402344 C 347.085938 221.839844 349.339844 220.917969 351.335938 219.636719 C 353.324219 218.355469 354.941406 216.703125 356.179688 214.671875 C 357.417969 212.636719 358.042969 210.15625 358.042969 207.21875 C 358.042969 204.433594 357.496094 202.175781 356.40625 200.445312 C 355.316406 198.714844 353.886719 197.28125 352.121094 196.152344 C 350.355469 195.023438 348.363281 194.140625 346.144531 193.5 C 343.929688 192.859375 341.691406 192.238281 339.4375 191.636719 C 336.277344 190.808594 333.515625 190.09375 331.144531 189.492188 C 328.777344 188.890625 326.585938 188.175781 324.554688 187.347656 C 322.597656 186.519531 321.035156 185.332031 319.871094 183.789062 C 318.707031 182.246094 318.125 180.046875 318.125 177.183594 C 318.125 176.660156 318.273438 175.71875 318.578125 174.363281 C 318.875 173.007812 319.59375 171.632812 320.714844 170.242188 C 321.847656 168.847656 323.574219 167.605469 325.90625 166.515625 C 328.234375 165.425781 331.429688 164.878906 335.492188 164.878906 C 338.273438 164.878906 340.8125 165.179688 343.097656 165.78125 C 345.394531 166.382812 347.371094 167.34375 349.019531 168.660156 C 350.671875 169.976562 351.953125 171.652344 352.859375 173.683594 C 353.757812 175.71875 354.210938 178.203125 354.210938 181.136719 Z M 354.210938 181.136719 " fill-opacity="1" fill-rule="nonzero"/></g></svg>