<svg xmlns="http://www.w3.org/2000/svg" xmlns:xlink="http://www.w3.org/1999/xlink" width="500" zoomAndPan="magnify" viewBox="0 0 375 374.999991" height="500" preserveAspectRatio="xMidYMid meet" version="1.0"><path fill="#e4ba42" d="M 375 187.5 C 375 211.925781 370.332031 235.261719 361.828125 256.671875 C 357.28125 268.117188 351.640625 279.011719 345.027344 289.222656 C 336.796875 301.957031 327.054688 313.628906 316.0625 323.976562 C 309.628906 330.046875 302.769531 335.652344 295.53125 340.769531 C 264.996094 362.332031 227.730469 375 187.5 375 C 147.265625 375 110.007812 362.332031 79.46875 340.769531 C 70.40625 334.371094 61.945312 327.199219 54.175781 319.332031 C 20.679688 285.46875 0 238.894531 0 187.5 C 0 136.109375 20.679688 89.53125 54.175781 55.667969 C 62.402344 47.339844 71.410156 39.789062 81.078125 33.113281 C 111.304688 12.230469 147.972656 0 187.5 0 C 227.03125 0 263.691406 12.230469 293.921875 33.113281 C 301.308594 38.203125 308.304688 43.820312 314.863281 49.90625 C 326.351562 60.527344 336.496094 72.578125 345.03125 85.777344 C 351.644531 95.980469 357.285156 106.878906 361.828125 118.332031 C 370.332031 139.734375 375 163.070312 375 187.5 Z M 375 187.5 " fill-opacity="1" fill-rule="nonzero"/><path fill="#f2f2f2" d="M 286.414062 170.628906 C 281.195312 155.496094 259.796875 155.496094 255.621094 168.023438 C 251.449219 180.546875 265.539062 187.851562 287.457031 195.160156 C 309.375 202.464844 322.945312 221.777344 320.339844 238.996094 C 317.726562 256.222656 310.421875 278.664062 267.105469 278.664062 C 240.03125 278.664062 224.988281 261.738281 217.507812 249.050781 L 242.054688 234.300781 C 242.054688 234.300781 250.402344 252.042969 266.0625 252.042969 C 281.71875 252.042969 287.980469 246.828125 287.980469 234.824219 C 287.980469 220.210938 237.359375 214.992188 229.527344 189.941406 C 221.699219 164.890625 232.136719 129.402344 268.667969 132.007812 C 291.503906 133.640625 304.34375 144.855469 310.769531 153.035156 Z M 286.414062 170.628906 " fill-opacity="1" fill-rule="nonzero"/><path fill="#f2f2f2" d="M 172.640625 134.621094 L 172.640625 234.824219 C 172.640625 246.828125 162.207031 253.09375 151.765625 251.003906 C 141.328125 248.914062 136.632812 236.390625 136.632812 236.390625 L 112.625 252.570312 C 112.625 252.570312 117.84375 276.574219 150.722656 278.664062 C 183.601562 280.75 202.390625 260.921875 202.390625 244.21875 L 202.390625 134.621094 Z M 172.640625 134.621094 " fill-opacity="1" fill-rule="nonzero"/><path fill="#f2f2f2" d="M 54.175781 33.113281 L 54.175781 319.332031 C 61.945312 327.199219 70.40625 334.371094 79.46875 340.769531 L 295.53125 340.769531 C 302.769531 335.652344 309.628906 330.046875 316.0625 323.976562 L 70.96875 323.976562 L 70.96875 49.90625 L 345.027344 49.90625 L 345.027344 289.222656 C 351.640625 279.011719 357.28125 268.117188 361.828125 256.671875 L 361.828125 33.113281 Z M 54.175781 33.113281 " fill-opacity="1" fill-rule="nonzero"/><path fill="#3f4a43" d="M 94.09375 248.390625 C 94.09375 264.820312 80.777344 278.140625 64.347656 278.140625 C 47.917969 278.140625 34.601562 264.820312 34.601562 248.390625 C 34.601562 231.964844 47.917969 218.648438 64.347656 218.648438 C 80.777344 218.648438 94.09375 231.964844 94.09375 248.390625 Z M 94.09375 248.390625 " fill-opacity="1" fill-rule="nonzero"/></svg>